HIERARCHY
ROOT joint_Root
{
	OFFSET 0.0 0.0 0.0
	CHANNELS 6 Xposition Yposition Zposition Zrotation Xrotation Yrotation 
	JOINT Hips
	{
		OFFSET 4.5925 91.4895 -427.239
		CHANNELS 6 Xposition Yposition Zposition Zrotation Xrotation Yrotation 
		JOINT Spine
		{
			OFFSET 15.7357 0.0 0.0
			CHANNELS 6 Xposition Yposition Zposition Zrotation Xrotation Yrotation 
			JOINT Chest
			{
				OFFSET 8.98455 -0.406207 0.0
				CHANNELS 6 Xposition Yposition Zposition Zrotation Xrotation Yrotation 
				JOINT Neck
				{
					OFFSET 16.3773 0.0 0.0
					CHANNELS 6 Xposition Yposition Zposition Zrotation Xrotation Yrotation 
					JOINT Head
					{
						OFFSET 6.45672 0.0 0.0
						CHANNELS 6 Xposition Yposition Zposition Zrotation Xrotation Yrotation 
						End Site
						{
							OFFSET 0.0 0.0 0.0
						}
					}
				}
				JOINT Shoulder_L
				{
					OFFSET 12.9942 -0.242716 4.98039
					CHANNELS 6 Xposition Yposition Zposition Zrotation Xrotation Yrotation 
					JOINT UpperArm_L
					{
						OFFSET 5.34809 0.0 0.0
						CHANNELS 6 Xposition Yposition Zposition Zrotation Xrotation Yrotation 
						JOINT LowerArm_L
						{
							OFFSET 24.3286 1.87007e-05 0.0
							CHANNELS 6 Xposition Yposition Zposition Zrotation Xrotation Yrotation 
							JOINT Hand_L
							{
								OFFSET 22.2916 0.0 0.0
								CHANNELS 6 Xposition Yposition Zposition Zrotation Xrotation Yrotation 
								End Site
								{
									OFFSET 0.0 0.0 0.0
								}
							}
						}
					}
				}
				JOINT Shoulder_R
				{
					OFFSET 12.9945 -0.242716 -4.98039
					CHANNELS 6 Xposition Yposition Zposition Zrotation Xrotation Yrotation 
					JOINT UpperArm_R
					{
						OFFSET -5.34813 0.0 0.0
						CHANNELS 6 Xposition Yposition Zposition Zrotation Xrotation Yrotation 
						JOINT LowerArm_R
						{
							OFFSET -24.3289 0.000322201 0.0
							CHANNELS 6 Xposition Yposition Zposition Zrotation Xrotation Yrotation 
							JOINT Hand_R
							{
								OFFSET -22.2915 -0.000108084 0.0
								CHANNELS 6 Xposition Yposition Zposition Zrotation Xrotation Yrotation 
								End Site
								{
									OFFSET 0.0 0.0 0.0
								}
							}
						}
					}
				}
			}
		}
		JOINT UpperLeg_L
		{
			OFFSET -2.19248 -6.46944 0.0
			CHANNELS 6 Xposition Yposition Zposition Zrotation Xrotation Yrotation 
			JOINT LowerLeg_L
			{
				OFFSET 39.0811 0.0 -1.23785e-05
				CHANNELS 6 Xposition Yposition Zposition Zrotation Xrotation Yrotation 
				JOINT Foot_L
				{
					OFFSET 40.9854 0.0 -1.26872e-05
					CHANNELS 6 Xposition Yposition Zposition Zrotation Xrotation Yrotation 
					JOINT Toes_L
					{
						OFFSET 11.7543 0.0 0.0
						CHANNELS 6 Xposition Yposition Zposition Zrotation Xrotation Yrotation 
						End Site
						{
							OFFSET 0.0 0.0 0.0
						}
					}
				}
			}
		}
		JOINT UpperLeg_R
		{
			OFFSET -2.19251 6.46944 0.0
			CHANNELS 6 Xposition Yposition Zposition Zrotation Xrotation Yrotation 
			JOINT LowerLeg_R
			{
				OFFSET -39.0811 -0.00228153 -0.0401928
				CHANNELS 6 Xposition Yposition Zposition Zrotation Xrotation Yrotation 
				JOINT Foot_R
				{
					OFFSET -40.9854 0.0 0.0
					CHANNELS 6 Xposition Yposition Zposition Zrotation Xrotation Yrotation 
					JOINT Toes_R
					{
						OFFSET -11.7543 0.0 0.0
						CHANNELS 6 Xposition Yposition Zposition Zrotation Xrotation Yrotation 
						End Site
						{
							OFFSET 0.0 0.0 0.0
						}
					}
				}
			}
		}
	}
}
MOTION
Frames:	9
Frame Time:	0.0333333
0.000000 0.000000 0.000000 0.000000 0.000000 -0.000000 -2.628730 90.300800 -1.834290 89.248900 -2.937200 11.295900 15.735700 0.000005 -0.000001 89.052000 77.658900 -88.441800 8.984550 -0.406207 -0.000000 16.915300 -0.353147 1.274780 16.377300 -0.000001 -0.000001 7.782320 -4.071480 -0.291106 6.456720 -0.000001 -0.000000 -6.837240 -3.695280 1.816490 12.994200 -0.242716 4.980390 -89.531400 -1.354140 -70.909500 5.348090 -0.000007 -0.000001 -72.348000 -22.473000 -81.410800 24.328600 0.000019 0.000005 38.809500 -4.426130 -95.480900 22.291600 -0.000001 0.000005 14.613400 4.981650 7.707310 12.994500 -0.242716 -4.980390 88.818600 9.888220 -83.152500 -5.348130 -0.000001 -0.000004 -56.645900 34.940300 -23.093300 -24.328900 0.000322 -0.000009 1.933080 4.961180 -21.330200 -22.291500 -0.000108 -0.000004 16.994800 5.425770 -3.794540 -2.192480 -6.469440 -0.000000 -173.162000 -12.656600 -1.796930 39.081100 -0.000007 -0.000012 -0.233109 0.345975 33.971500 40.985400 -0.000006 -0.000013 -1.305840 3.330740 -70.252400 11.754300 -0.000000 0.000003 -0.000230 -0.002080 -16.655700 -2.192510 6.469440 -0.000001 175.313000 20.621000 179.536000 -39.081100 -0.002282 -0.040193 -0.244562 0.377343 33.299100 -40.985400 0.000008 0.000006 4.525620 12.084100 -71.399300 -11.754300 -0.000006 -0.000006 -0.002337 -0.032861 -17.909400
0.000000 0.000000 0.000000 0.000000 0.000000 -0.000000 -2.634610 90.297200 -1.895430 89.231800 -2.894400 11.361100 15.735700 0.000005 -0.000001 89.027000 77.643700 -88.395500 8.984550 -0.406207 -0.000000 16.945500 -0.362349 1.319070 16.377300 -0.000001 -0.000001 7.812170 -4.035470 -0.316289 6.456720 -0.000001 -0.000000 -6.871060 -3.676080 1.785820 12.994200 -0.242716 4.980390 -89.535400 -1.341480 -70.895800 5.348090 -0.000007 -0.000001 -72.375100 -22.522400 -81.454800 24.328600 0.000019 0.000005 38.948100 -4.471380 -95.509300 22.291600 -0.000001 0.000005 14.648600 4.979930 7.743390 12.994500 -0.242716 -4.980390 88.822600 9.868800 -83.162300 -5.348130 -0.000001 -0.000004 -56.648600 35.017900 -23.088800 -24.328900 0.000322 -0.000009 1.933190 4.948410 -21.381200 -22.291500 -0.000108 -0.000004 16.955200 5.426100 -3.805710 -2.192480 -6.469440 -0.000000 -173.140000 -12.616000 -1.802320 39.081100 -0.000007 -0.000012 -0.231125 0.342483 34.013800 40.985400 -0.000006 -0.000013 -1.291770 3.370170 -70.228100 11.754300 -0.000000 0.000003 -0.000234 -0.002111 -16.656800 -2.192510 6.469440 -0.000001 175.310000 20.652400 179.555000 -39.081100 -0.002282 -0.040193 -0.245603 0.378578 33.323500 -40.985400 0.000008 0.000006 4.535510 12.091300 -71.374500 -11.754300 -0.000006 -0.000006 -0.002225 -0.031492 -17.853700
0.000000 0.000000 0.000000 0.000000 0.000000 -0.000000 -2.623960 90.301600 -1.961950 89.235200 -2.882910 11.401000 15.735700 0.000005 -0.000001 89.069200 77.636100 -88.427600 8.984550 -0.406207 -0.000000 16.961100 -0.343798 1.336370 16.377300 -0.000001 -0.000001 7.806650 -4.049650 -0.335798 6.456720 -0.000001 -0.000000 -6.840810 -3.634050 1.780220 12.994200 -0.242716 4.980390 -89.541600 -1.322860 -70.886800 5.348090 -0.000007 -0.000001 -72.393900 -22.558000 -81.496900 24.328600 0.000019 0.000005 38.792900 -4.485030 -95.556500 22.291600 -0.000001 0.000005 14.661500 4.981590 7.708370 12.994500 -0.242716 -4.980390 88.821800 9.869090 -83.158000 -5.348130 -0.000001 -0.000004 -56.666700 35.046600 -23.110400 -24.328900 0.000322 -0.000009 1.941460 4.980890 -21.337300 -22.291500 -0.000108 -0.000004 16.993800 5.425930 -3.799870 -2.192480 -6.469440 -0.000000 -173.149000 -12.597800 -1.814650 39.081100 -0.000007 -0.000012 -0.232488 0.344539 34.011100 40.985400 -0.000006 -0.000013 -1.283430 3.367740 -70.177000 11.754300 -0.000000 0.000003 -0.000241 -0.002169 -16.658900 -2.192510 6.469440 -0.000001 175.304000 20.687900 179.550000 -39.081100 -0.002282 -0.040193 -0.246042 0.379229 33.324600 -40.985400 0.000008 0.000006 4.532880 12.059300 -71.327400 -11.754300 -0.000006 -0.000006 -0.002408 -0.033712 -17.944000
0.000000 0.000000 0.000000 0.000000 0.000000 -0.000000 -2.620470 90.302500 -2.024750 89.243200 -2.864280 11.460600 15.735700 0.000005 -0.000001 89.088900 77.630100 -88.442400 8.984550 -0.406207 -0.000000 16.973200 -0.335168 1.344990 16.377300 -0.000001 -0.000001 7.829330 -4.051120 -0.344362 6.456720 -0.000001 -0.000000 -6.779950 -3.627200 1.814350 12.994200 -0.242716 4.980390 -89.543100 -1.317160 -70.868200 5.348090 -0.000007 -0.000001 -72.443900 -22.566100 -81.488300 24.328600 0.000019 0.000005 38.638800 -4.505890 -95.612800 22.291600 -0.000001 0.000005 14.441400 4.987210 7.590310 12.994500 -0.242716 -4.980390 88.816600 9.914460 -83.158400 -5.348130 -0.000001 -0.000004 -56.654300 35.051600 -23.081300 -24.328900 0.000322 -0.000009 1.937220 4.974650 -21.319200 -22.291500 -0.000108 -0.000004 17.019300 5.424820 -3.761940 -2.192480 -6.469440 -0.000000 -173.162000 -12.586700 -1.808550 39.081100 -0.000007 -0.000012 -0.231675 0.343197 34.021700 40.985400 -0.000006 -0.000013 -1.273930 3.354810 -70.137500 11.754300 -0.000000 0.000003 -0.000231 -0.002093 -16.656200 -2.192510 6.469440 -0.000001 175.293000 20.661100 179.556000 -39.081100 -0.002282 -0.040193 -0.242242 0.373194 33.342600 -40.985400 0.000008 0.000006 4.536950 12.060000 -71.294800 -11.754300 -0.000006 -0.000006 -0.002312 -0.032559 -17.897100
0.000000 0.000000 0.000000 0.000000 0.000000 -0.000000 -2.614580 90.302600 -2.087170 89.247300 -2.825260 11.522000 15.735700 0.000005 -0.000001 89.103000 77.621200 -88.446400 8.984550 -0.406207 -0.000000 16.991000 -0.328540 1.364270 16.377300 -0.000001 -0.000001 7.881550 -4.042050 -0.298058 6.456720 -0.000001 -0.000000 -6.784870 -3.654310 1.775600 12.994200 -0.242716 4.980390 -89.546500 -1.308490 -70.880500 5.348090 -0.000007 -0.000001 -72.411500 -22.552600 -81.450600 24.328600 0.000019 0.000005 38.718600 -4.524850 -95.620200 22.291600 -0.000001 0.000005 14.434800 4.983390 7.670580 12.994500 -0.242716 -4.980390 88.817500 9.903840 -83.156800 -5.348130 -0.000001 -0.000004 -56.674100 35.051600 -23.056800 -24.328900 0.000322 -0.000009 1.919950 4.935300 -21.299100 -22.291500 -0.000108 -0.000004 17.023100 5.425010 -3.768590 -2.192480 -6.469440 -0.000000 -173.155000 -12.584300 -1.804340 39.081100 -0.000007 -0.000012 -0.231952 0.343433 34.035200 40.985400 -0.000006 -0.000013 -1.249440 3.419760 -70.096300 11.754300 -0.000000 0.000003 -0.000230 -0.002080 -16.655700 -2.192510 6.469440 -0.000001 175.276000 20.694100 179.567000 -39.081100 -0.002282 -0.040193 -0.242943 0.373980 33.362200 -40.985400 0.000008 0.000006 4.541970 12.044800 -71.261700 -11.754300 -0.000006 -0.000006 -0.002457 -0.034299 -17.967800
0.000000 0.000000 0.000000 0.000000 0.000000 -0.000000 -2.610060 90.305900 -2.154940 89.261300 -2.795030 11.572000 15.735700 0.000005 -0.000001 89.082500 77.612700 -88.430600 8.984550 -0.406207 -0.000000 17.007800 -0.337775 1.356270 16.377300 -0.000001 -0.000001 7.866430 -4.060960 -0.310951 6.456720 -0.000001 -0.000000 -6.733950 -3.650590 1.858350 12.994200 -0.242716 4.980390 -89.549900 -1.297660 -70.868500 5.348090 -0.000007 -0.000001 -72.337500 -22.569400 -81.428300 24.328600 0.000019 0.000005 38.693100 -4.524700 -95.625100 22.291600 -0.000001 0.000005 14.449600 4.981920 7.701530 12.994500 -0.242716 -4.980390 88.815100 9.920370 -83.154000 -5.348130 -0.000001 -0.000004 -56.681300 35.048900 -23.046700 -24.328900 0.000322 -0.000009 1.947450 5.007840 -21.292800 -22.291500 -0.000108 -0.000004 17.008800 5.424640 -3.756080 -2.192480 -6.469440 -0.000000 -173.178000 -12.588700 -1.810340 39.081100 -0.000007 -0.000012 -0.227546 0.336913 34.035000 40.985400 -0.000006 -0.000013 -1.229820 3.428270 -70.044300 11.754300 -0.000000 0.000003 -0.000230 -0.002084 -16.655800 -2.192510 6.469440 -0.000001 175.262000 20.692100 179.562000 -39.081100 -0.002282 -0.040193 -0.241885 0.372211 33.373700 -40.985400 0.000008 0.000006 4.536330 12.011000 -71.217900 -11.754300 -0.000006 -0.000006 -0.002355 -0.033073 -17.918000
0.000000 0.000000 0.000000 0.000000 0.000000 -0.000000 -2.603690 90.307500 -2.219000 89.291900 -2.748530 11.637900 15.735700 0.000005 -0.000001 89.039500 77.602900 -88.392300 8.984550 -0.406207 -0.000000 17.027200 -0.356658 1.349710 16.377300 -0.000001 -0.000001 7.905130 -4.072020 -0.295559 6.456720 -0.000001 -0.000000 -6.736160 -3.656630 1.851210 12.994200 -0.242716 4.980390 -89.550000 -1.296300 -70.854000 5.348090 -0.000007 -0.000001 -72.317700 -22.528100 -81.372200 24.328600 0.000019 0.000005 38.755900 -4.512140 -95.597200 22.291600 -0.000001 0.000005 14.449900 4.984460 7.648060 12.994500 -0.242716 -4.980390 88.815400 9.910470 -83.149000 -5.348130 -0.000001 -0.000004 -56.665200 35.084400 -23.037400 -24.328900 0.000322 -0.000009 1.897170 4.877850 -21.294100 -22.291500 -0.000108 -0.000004 16.948100 5.426010 -3.802670 -2.192480 -6.469440 -0.000000 -173.195000 -12.624700 -1.794660 39.081100 -0.000007 -0.000012 -0.226920 0.336050 34.029800 40.985400 -0.000006 -0.000013 -1.191530 3.519160 -69.990700 11.754300 -0.000000 0.000003 -0.000222 -0.002021 -16.653500 -2.192510 6.469440 -0.000001 175.221000 20.692700 179.571000 -39.081100 -0.002282 -0.040193 -0.240590 0.369870 33.400300 -40.985400 0.000008 0.000006 4.536700 11.991600 -71.188100 -11.754300 -0.000006 -0.000006 -0.002418 -0.033832 -17.948900
0.000000 0.000000 0.000000 0.000000 0.000000 -0.000000 -2.599040 90.309500 -2.281820 89.300000 -2.717120 11.694300 15.735700 0.000005 -0.000001 89.026600 77.594500 -88.381200 8.984550 -0.406207 -0.000000 17.044100 -0.362441 1.347090 16.377300 -0.000001 -0.000001 7.888840 -4.071000 -0.323695 6.456720 -0.000001 -0.000000 -6.695410 -3.663590 1.889540 12.994200 -0.242716 4.980390 -89.551900 -1.290910 -70.855400 5.348090 -0.000007 -0.000001 -72.318700 -22.508200 -81.333300 24.328600 0.000019 0.000005 38.748700 -4.528290 -95.618500 22.291600 -0.000001 0.000005 14.282100 4.986050 7.614540 12.994500 -0.242716 -4.980390 88.812900 9.918110 -83.139900 -5.348130 -0.000001 -0.000004 -56.681900 35.031000 -23.006600 -24.328900 0.000322 -0.000009 1.947090 5.006930 -21.292700 -22.291500 -0.000108 -0.000004 16.941000 5.425020 -3.768840 -2.192480 -6.469440 -0.000000 -173.191000 -12.653400 -1.784170 39.081100 -0.000007 -0.000012 -0.228113 0.337795 34.031600 40.985400 -0.000006 -0.000013 -1.163510 3.578950 -69.946900 11.754300 -0.000000 0.000003 -0.000238 -0.002142 -16.657900 -2.192510 6.469440 -0.000001 175.204000 20.701600 179.577000 -39.081100 -0.002282 -0.040193 -0.240675 0.369825 33.412800 -40.985400 0.000008 0.000006 4.531450 11.963500 -71.147400 -11.754300 -0.000006 -0.000006 -0.002346 -0.032964 -17.913500
0.000000 0.000000 0.000000 0.000000 0.000000 -0.000000 -2.585540 90.319200 -2.348430 89.325200 -2.708520 11.733900 15.735700 0.000005 -0.000001 89.028600 77.591100 -88.386800 8.984550 -0.406207 -0.000000 17.050900 -0.361954 1.339950 16.377300 -0.000001 -0.000001 7.903150 -4.065840 -0.329494 6.456720 -0.000001 -0.000000 -6.745900 -3.658520 1.839980 12.994200 -0.242716 4.980390 -89.568300 -1.244090 -70.860000 5.348090 -0.000007 -0.000001 -72.262200 -22.509200 -81.291700 24.328600 0.000019 0.000005 38.765700 -4.535270 -95.623700 22.291600 -0.000001 0.000005 14.273800 4.984180 7.653940 12.994500 -0.242716 -4.980390 88.810500 9.916700 -83.125000 -5.348130 -0.000001 -0.000004 -56.649700 35.031100 -23.011900 -24.328900 0.000322 -0.000009 1.945690 5.005440 -21.284500 -22.291500 -0.000108 -0.000004 16.990100 5.425070 -3.770620 -2.192480 -6.469440 -0.000000 -173.209000 -12.714700 -1.776460 39.081100 -0.000007 -0.000012 -0.226819 0.336375 33.992300 40.985400 -0.000006 -0.000013 -1.134770 3.629830 -69.874700 11.754300 -0.000000 0.000003 -0.000228 -0.002067 -16.655200 -2.192510 6.469440 -0.000001 175.179000 20.692300 179.574000 -39.081100 -0.002282 -0.040193 -0.236730 0.364041 33.398500 -40.985400 0.000008 0.000006 4.532250 11.971500 -71.094300 -11.754300 -0.000006 -0.000006 -0.002532 -0.035191 -18.004100
